# xmcd
#
# Track frame offsets:
#	150
#	17543
#	31477
#	46561
#	61897
#	78251
#	89669
#	97735
#	114227
#	130751
#	146868
#	163121
#	178160
#	196764
#
# Disc length: 2854
#
# Revision: 1
# Processed by: cddbd v1.5.1PL0 Copyright (c) Steve Scherf et al.
# Submitted via: VisiTrax 2.9.5.180 - For more info visit www.synapsa.com
# Normalized: r0:DSETVAR1
#
DISCID=ab0b240e
DTITLE=Various Artist - CDX 237 April 2000
DYEAR=2000
DGENRE=
TTITLE0=Steve Hol - Blue moon
TTITLE1=Ricochet - Do I love you enough
TTITLE2=Mark Chesnutt - Fallin' never felt so good
TTITLE3=Wade Hayes - Goodbye is the wrong way to go
TTITLE4=Tammy Cochran - If you can
TTITLE5=George Jones - Sinners and saints
TTITLE6=Tim Wilson - The ballad of John Rocker
TTITLE7=Kathy Mattea - Trouble with angels
TTITLE8=Alabama - We made love
TTITLE9=Lonestar - What about now
TTITLE10=john Anderson - You ain't hurt nothin' yet
TTITLE11=B J Thomas - You call that a mountain
TTITLE12=Greg Windham - In my book
TTITLE13=Joe Kidd Baker - Woodpecker
EXTD=
EXTT0=
EXTT1=
EXTT2=
EXTT3=
EXTT4=
EXTT5=
EXTT6=
EXTT7=
EXTT8=
EXTT9=
EXTT10=
EXTT11=
EXTT12=
EXTT13=
PLAYORDER=
